<svg xmlns="http://www.w3.org/2000/svg" version="1.1" xmlns:xlink="http://www.w3.org/1999/xlink" xmlns:svgjs="http://svgjs.com/svgjs" id="BgenPttrnSvgRootPreview" width="100%" height="100%"><defs><pattern x="0" y="0" width="1" height="1" patternUnits="userSpaceOnUse" id="BgenPttrnLayer1"><g id="PatternRootContent1"><g id="BgenPttrnLayer1background"><rect width="1" height="1" id="BgenPttrnBackground1" fill="#ffffff"></rect></g></g></pattern><pattern x="0" y="0" width="55" height="94" patternUnits="userSpaceOnUse" id="BgenPttrnLayer2" patternTransform="matrix(1.827955187921337,1.0132521063148443,-1.0132521063148443,1.827955187921337,0,0)"><g id="PatternRootContent2"><g id="BgenPttrnLayer2Element1"></g><g id="BgenPttrnLayer2Element2"></g><g id="BgenPttrnLayer2Element3"><use xlink:href="#BgenPttrnElement3" x="15.5" y="11.5" transform="translate(26.5, 22.5) scale(1) translate(-26.5, -22.5) rotate(0, 27.5, 23.5)"></use><use xlink:href="#BgenPttrnElement3" x="43" y="58.5" transform="translate(54, 69.5) scale(1) translate(-54, -69.5) rotate(0, 55, 70.5)"></use><use xlink:href="#BgenPttrnElement3" x="-12" y="58.5" transform="translate(-1, 69.5) scale(1) translate(1, -69.5) rotate(0, 0, 70.5)"></use></g></g></pattern><symbol id="BgenPttrnElement3"><path d="M12 3L1 9L5 11.18V17.18L12 21L19 17.18V11.18L21 10.09V17H23V9L12 3M18.82 9L12 12.72L5.18 9L12 5.28L18.82 9M17 16L12 18.72L7 16V12.27L12 15L17 12.27V16Z" class="fill_color_0" fill="#defdff"></path></symbol></defs><rect width="100%" height="100%" id="BgenPttrnRctLayer1" fill="url(#BgenPttrnLayer1)"></rect><rect width="100%" height="100%" id="BgenPttrnRctLayer2" fill="url(#BgenPttrnLayer2)"></rect></svg>